ffmpeg started on 2025-07-19 at 14:04:50
Report written to "D:\Convert\FFMetrics\reports\psnr_report-6.txt"
Log level: 32
Command line:
ffmpeg -hide_banner -nostdin -i "G:\\\xc0\xed\xe8\xec\xe5\\\xce\xed\xe3\xee\xe8\xed\xe3\xe8\\!_07_\xcb\xe5\xf2\xee_2017\\\xd1\xe5\xec\xfc - \xe2\xe5\xf0\xed\xee, \xf2\xf0\xe8 - \xed\xe5\xe2\xe5\xf0\xed\xee\\[AniDub]_Nana_Maru_San_Batsu_[07]_[720p_x264_Aac]_[MVO]_HEVC.mkv" -i "G:\\\xc0\xed\xe8\xec\xe5\\\xce\xed\xe3\xee\xe8\xed\xe3\xe8\\!_07_\xcb\xe5\xf2\xee_2017\\\xd1\xe5\xec\xfc - \xe2\xe5\xf0\xed\xee, \xf2\xf0\xe8 - \xed\xe5\xe2\xe5\xf0\xed\xee\\[AniDub]_Nana_Maru_San_Batsu_[07]_[720p_x264_Aac]_[MVO].mp4" -lavfi "[0:v]settb=AVTB,setpts=PTS-STARTPTS,format=pix_fmts=yuv420p10,fps=24000/1001,scale=1280:720:flags=bicubic[main];[1:v]settb=AVTB,setpts=PTS-STARTPTS,format=pix_fmts=yuv420p,fps=24000/1001,scale=1280:720:flags=bicubic[ref];[main][ref]psnr=eof_action=endall:stats_file='D\\:/Convert/FFMetrics/logs/psnr_logfile-6.txt'" -f null -
Input #0, matroska,webm, from 'G:\Аниме\Онгоинги\!_07_Лето_2017\Семь - верно, три - неверно\[AniDub]_Nana_Maru_San_Batsu_[07]_[720p_x264_Aac]_[MVO]_HEVC.mkv':
  Metadata:
    COMPATIBLE_BRANDS: isomavc1
    MAJOR_BRAND     : isom
    MINOR_VERSION   : 1
    ENCODER         : Lavf61.7.100
  Duration: 00:23:01.23, start: -0.021000, bitrate: 683 kb/s
  Stream #0:0: Video: hevc (Main 10), yuv420p10le(tv, bt709, progressive), 1280x720 [SAR 1:1 DAR 16:9], 23.98 fps, 23.98 tbr, 1k tbn (default)
      Metadata:
        HANDLER_NAME    : GPAC ISO Video Handler
        VENDOR_ID       : [0][0][0][0]
        ENCODER         : Lavc61.19.100 libx265
        BPS             : 488950
        DURATION        : 00:23:00.045708333
        NUMBER_OF_FRAMES: 33088
        NUMBER_OF_BYTES : 84346748
        _STATISTICS_WRITING_APP: mkvpropedit v66.0.0 ('Josie') 64-bit
        _STATISTICS_WRITING_DATE_UTC: 2025-07-19 09:56:59
        _STATISTICS_TAGS: BPS DURATION NUMBER_OF_FRAMES NUMBER_OF_BYTES
  Stream #0:1(eng): Audio: aac (LC), 48000 Hz, stereo, fltp (default)
      Metadata:
        HANDLER_NAME    : GPAC ISO Audio Handler
        VENDOR_ID       : [0][0][0][0]
        ENCODER         : Lavc61.19.100 aac
        BPS             : 191076
        DURATION        : 00:23:01.205000000
        NUMBER_OF_FRAMES: 64745
        NUMBER_OF_BYTES : 32989547
        _STATISTICS_WRITING_APP: mkvpropedit v66.0.0 ('Josie') 64-bit
        _STATISTICS_WRITING_DATE_UTC: 2025-07-19 09:56:59
        _STATISTICS_TAGS: BPS DURATION NUMBER_OF_FRAMES NUMBER_OF_BYTES
Input #1, mov,mp4,m4a,3gp,3g2,mj2, from 'G:\Аниме\Онгоинги\!_07_Лето_2017\Семь - верно, три - неверно\[AniDub]_Nana_Maru_San_Batsu_[07]_[720p_x264_Aac]_[MVO].mp4':
  Metadata:
    major_brand     : isom
    minor_version   : 1
    compatible_brands: isomavc1
    creation_time   : 2018-03-23T20:43:43.000000Z
    encoder         : Yamb 2.1.0.0 [http://yamb.unite-video.com]
  Duration: 00:23:01.21, start: 0.000000, bitrate: 1968 kb/s
  Stream #1:0[0x1](und): Video: h264 (High) (avc1 / 0x31637661), yuv420p(progressive), 1280x720 [SAR 1:1 DAR 16:9], 1774 kb/s, 23.98 fps, 23.98 tbr, 24k tbn (default)
      Metadata:
        creation_time   : 2018-03-23T20:43:43.000000Z
        handler_name    : GPAC ISO Video Handler
        vendor_id       : [0][0][0][0]
  Stream #1:1[0x2](eng): Audio: aac (LC) (mp4a / 0x6134706D), 48000 Hz, stereo, fltp, 192 kb/s (default)
      Metadata:
        creation_time   : 2018-03-23T20:43:44.000000Z
        handler_name    : GPAC ISO Audio Handler
        vendor_id       : [0][0][0][0]
Stream mapping:
  Stream #0:0 (hevc) -> settb:default
  Stream #1:0 (h264) -> settb:default
  psnr:default -> Stream #0:0 (wrapped_avframe)
  Stream #0:1 -> #0:1 (aac (native) -> pcm_s16le (native))
[swscaler @ 0000028bcc907500] No accelerated colorspace conversion found from yuv420p to bgr48le.
[swscaler @ 0000028bcca242c0] No accelerated colorspace conversion found from yuv420p to bgr48le.
[swscaler @ 0000028bccbb6ec0] No accelerated colorspace conversion found from yuv420p to bgr48le.
[swscaler @ 0000028bcccedf00] No accelerated colorspace conversion found from yuv420p to bgr48le.
[swscaler @ 0000028bccd5bf40] No accelerated colorspace conversion found from yuv420p to bgr48le.
[swscaler @ 0000028bccde2800] No accelerated colorspace conversion found from yuv420p to bgr48le.
[swscaler @ 0000028bcce3ebc0] No accelerated colorspace conversion found from yuv420p to bgr48le.
[swscaler @ 0000028bccead040] No accelerated colorspace conversion found from yuv420p to bgr48le.
[swscaler @ 0000028bccf08bc0] No accelerated colorspace conversion found from yuv420p to bgr48le.
[swscaler @ 0000028bccf9f040] No accelerated colorspace conversion found from yuv420p to bgr48le.
[swscaler @ 0000028bcd00b040] No accelerated colorspace conversion found from yuv420p to bgr48le.
[swscaler @ 0000028bcd07c040] No accelerated colorspace conversion found from yuv420p to bgr48le.
[swscaler @ 0000028bcd0da040] No accelerated colorspace conversion found from yuv420p to bgr48le.
[swscaler @ 0000028bcd15d040] No accelerated colorspace conversion found from yuv420p to bgr48le.
[swscaler @ 0000028bcd1d3040] No accelerated colorspace conversion found from yuv420p to bgr48le.
[swscaler @ 0000028bd22b2040] No accelerated colorspace conversion found from yuv420p to bgr48le.
Output #0, null, to 'pipe:':
  Metadata:
    COMPATIBLE_BRANDS: isomavc1
    MAJOR_BRAND     : isom
    MINOR_VERSION   : 1
    encoder         : Lavf61.7.100
  Stream #0:0: Video: wrapped_avframe, yuv420p10le(tv, bt709, progressive), 1280x720 [SAR 1:1 DAR 16:9], q=2-31, 200 kb/s, 23.98 fps, 23.98 tbn
      Metadata:
        encoder         : Lavc61.19.100 wrapped_avframe
  Stream #0:1(eng): Audio: pcm_s16le, 48000 Hz, stereo, s16, 1536 kb/s (default)
      Metadata:
        HANDLER_NAME    : GPAC ISO Audio Handler
        VENDOR_ID       : [0][0][0][0]
        _STATISTICS_TAGS: BPS DURATION NUMBER_OF_FRAMES NUMBER_OF_BYTES
        BPS             : 191076
        DURATION        : 00:23:01.205000000
        NUMBER_OF_FRAMES: 64745
        NUMBER_OF_BYTES : 32989547
        _STATISTICS_WRITING_APP: mkvpropedit v66.0.0 ('Josie') 64-bit
        _STATISTICS_WRITING_DATE_UTC: 2025-07-19 09:56:59
        encoder         : Lavc61.19.100 pcm_s16le
frame=   78 fps=0.0 q=-0.0 size=N/A time=00:00:03.25 bitrate=N/A speed=6.34x    frame=  166 fps=163 q=-0.0 size=N/A time=00:00:06.92 bitrate=N/A speed= 6.8x    frame=  259 fps=168 q=-0.0 size=N/A time=00:00:10.80 bitrate=N/A speed=7.02x    frame=  371 fps=180 q=-0.0 size=N/A time=00:00:15.47 bitrate=N/A speed=7.53x    frame=  472 fps=183 q=-0.0 size=N/A time=00:00:19.68 bitrate=N/A speed=7.63x    frame=  567 fps=184 q=-0.0 size=N/A time=00:00:23.64 bitrate=N/A speed=7.66x    frame=  668 fps=185 q=-0.0 size=N/A time=00:00:27.86 bitrate=N/A speed=7.72x    frame=  763 fps=185 q=-0.0 size=N/A time=00:00:31.82 bitrate=N/A speed=7.73x    frame=  856 fps=185 q=-0.0 size=N/A time=00:00:35.70 bitrate=N/A speed=7.72x    frame=  955 fps=185 q=-0.0 size=N/A time=00:00:39.83 bitrate=N/A speed=7.73x    frame= 1050 fps=185 q=-0.0 size=N/A time=00:00:43.79 bitrate=N/A speed=7.72x    frame= 1140 fps=184 q=-0.0 size=N/A time=00:00:47.54 bitrate=N/A speed=7.67x    frame= 1239 fps=185 q=-0.0 size=N/A time=00:00:51.67 bitrate=N/A speed= 7.7x    frame= 1339 fps=185 q=-0.0 size=N/A time=00:00:55.84 bitrate=N/A speed=7.73x    frame= 1428 fps=184 q=-0.0 size=N/A time=00:00:59.55 bitrate=N/A speed=7.69x    frame= 1514 fps=183 q=-0.0 size=N/A time=00:01:03.14 bitrate=N/A speed=7.64x    frame= 1596 fps=182 q=-0.0 size=N/A time=00:01:06.56 bitrate=N/A speed=7.59x    frame= 1693 fps=182 q=-0.0 size=N/A time=00:01:10.61 bitrate=N/A speed= 7.6x    frame= 1789 fps=182 q=-0.0 size=N/A time=00:01:14.61 bitrate=N/A speed= 7.6x    frame= 1876 fps=182 q=-0.0 size=N/A time=00:01:18.24 bitrate=N/A speed=7.58x    frame= 1976 fps=182 q=-0.0 size=N/A time=00:01:22.41 bitrate=N/A speed=7.61x    frame= 2064 fps=182 q=-0.0 size=N/A time=00:01:26.08 bitrate=N/A speed=7.58x    frame= 2156 fps=182 q=-0.0 size=N/A time=00:01:29.92 bitrate=N/A speed=7.58x    frame= 2250 fps=182 q=-0.0 size=N/A time=00:01:33.84 bitrate=N/A speed=7.57x    frame= 2338 fps=181 q=-0.0 size=N/A time=00:01:37.51 bitrate=N/A speed=7.56x    frame= 2432 fps=181 q=-0.0 size=N/A time=00:01:41.43 bitrate=N/A speed=7.56x    frame= 2520 fps=181 q=-0.0 size=N/A time=00:01:45.10 bitrate=N/A speed=7.55x    frame= 2620 fps=181 q=-0.0 size=N/A time=00:01:49.27 bitrate=N/A speed=7.56x    frame= 2713 fps=181 q=-0.0 size=N/A time=00:01:53.15 bitrate=N/A speed=7.56x    frame= 2808 fps=181 q=-0.0 size=N/A time=00:01:57.11 bitrate=N/A speed=7.56x    frame= 2900 fps=181 q=-0.0 size=N/A time=00:02:00.95 bitrate=N/A speed=7.57x    frame= 2994 fps=181 q=-0.0 size=N/A time=00:02:04.87 bitrate=N/A speed=7.56x    frame= 3086 fps=181 q=-0.0 size=N/A time=00:02:08.71 bitrate=N/A speed=7.56x    frame= 3184 fps=182 q=-0.0 size=N/A time=00:02:12.79 bitrate=N/A speed=7.57x    frame= 3278 fps=182 q=-0.0 size=N/A time=00:02:16.71 bitrate=N/A speed=7.57x    frame= 3376 fps=182 q=-0.0 size=N/A time=00:02:20.80 bitrate=N/A speed=7.58x    frame= 3471 fps=182 q=-0.0 size=N/A time=00:02:24.76 bitrate=N/A speed=7.58x    frame= 3561 fps=181 q=-0.0 size=N/A time=00:02:28.52 bitrate=N/A speed=7.57x    frame= 3644 fps=181 q=-0.0 size=N/A time=00:02:31.98 bitrate=N/A speed=7.55x    frame= 3747 fps=181 q=-0.0 size=N/A time=00:02:36.28 bitrate=N/A speed=7.57x    frame= 3851 fps=182 q=-0.0 size=N/A time=00:02:40.61 bitrate=N/A speed=7.59x    frame= 3944 fps=182 q=-0.0 size=N/A time=00:02:44.49 bitrate=N/A speed=7.58x    frame= 4043 fps=182 q=-0.0 size=N/A time=00:02:48.62 bitrate=N/A speed=7.59x    frame= 4134 fps=182 q=-0.0 size=N/A time=00:02:52.42 bitrate=N/A speed=7.58x    frame= 4232 fps=182 q=-0.0 size=N/A time=00:02:56.50 bitrate=N/A speed= 7.6x    frame= 4331 fps=182 q=-0.0 size=N/A time=00:03:00.63 bitrate=N/A speed= 7.6x    frame= 4423 fps=182 q=-0.0 size=N/A time=00:03:04.47 bitrate=N/A speed= 7.6x    frame= 4513 fps=182 q=-0.0 size=N/A time=00:03:08.22 bitrate=N/A speed=7.59x    frame= 4613 fps=182 q=-0.0 size=N/A time=00:03:12.40 bitrate=N/A speed=7.61x    frame= 4701 fps=182 q=-0.0 size=N/A time=00:03:16.07 bitrate=N/A speed=7.59x    frame= 4797 fps=182 q=-0.0 size=N/A time=00:03:20.07 bitrate=N/A speed= 7.6x    frame= 4881 fps=182 q=-0.0 size=N/A time=00:03:23.57 bitrate=N/A speed=7.58x    frame= 4973 fps=182 q=-0.0 size=N/A time=00:03:27.41 bitrate=N/A speed=7.58x    frame= 5056 fps=181 q=-0.0 size=N/A time=00:03:30.87 bitrate=N/A speed=7.56x    frame= 5144 fps=181 q=-0.0 size=N/A time=00:03:34.54 bitrate=N/A speed=7.56x    frame= 5243 fps=181 q=-0.0 size=N/A time=00:03:38.67 bitrate=N/A speed=7.56x    frame= 5338 fps=181 q=-0.0 size=N/A time=00:03:42.63 bitrate=N/A speed=7.56x    frame= 5432 fps=181 q=-0.0 size=N/A time=00:03:46.55 bitrate=N/A speed=7.57x    frame= 5524 fps=181 q=-0.0 size=N/A time=00:03:50.39 bitrate=N/A speed=7.56x    frame= 5623 fps=182 q=-0.0 size=N/A time=00:03:54.52 bitrate=N/A speed=7.57x    frame= 5721 fps=182 q=-0.0 size=N/A time=00:03:58.61 bitrate=N/A speed=7.58x    frame= 5817 fps=182 q=-0.0 size=N/A time=00:04:02.61 bitrate=N/A speed=7.58x    frame= 5913 fps=182 q=-0.0 size=N/A time=00:04:06.62 bitrate=N/A speed=7.58x    frame= 6007 fps=182 q=-0.0 size=N/A time=00:04:10.54 bitrate=N/A speed=7.58x    frame= 6107 fps=182 q=-0.0 size=N/A time=00:04:14.71 bitrate=N/A speed=7.59x    frame= 6202 fps=182 q=-0.0 size=N/A time=00:04:18.67 bitrate=N/A speed=7.59x    frame= 6297 fps=182 q=-0.0 size=N/A time=00:04:22.63 bitrate=N/A speed=7.59x    frame= 6387 fps=182 q=-0.0 size=N/A time=00:04:26.39 bitrate=N/A speed=7.59x    frame= 6489 fps=182 q=-0.0 size=N/A time=00:04:30.64 bitrate=N/A speed= 7.6x    frame= 6586 fps=182 q=-0.0 size=N/A time=00:04:34.69 bitrate=N/A speed= 7.6x    frame= 6677 fps=182 q=-0.0 size=N/A time=00:04:38.48 bitrate=N/A speed= 7.6x    frame= 6773 fps=182 q=-0.0 size=N/A time=00:04:42.49 bitrate=N/A speed= 7.6x    frame= 6863 fps=182 q=-0.0 size=N/A time=00:04:46.24 bitrate=N/A speed=7.59x    frame= 6962 fps=182 q=-0.0 size=N/A time=00:04:50.37 bitrate=N/A speed= 7.6x    frame= 7058 fps=182 q=-0.0 size=N/A time=00:04:54.37 bitrate=N/A speed=7.61x    frame= 7155 fps=182 q=-0.0 size=N/A time=00:04:58.42 bitrate=N/A speed=7.61x    frame= 7247 fps=182 q=-0.0 size=N/A time=00:05:02.26 bitrate=N/A speed=7.61x    frame= 7344 fps=182 q=-0.0 size=N/A time=00:05:06.30 bitrate=N/A speed=7.61x    frame= 7434 fps=182 q=-0.0 size=N/A time=00:05:10.05 bitrate=N/A speed= 7.6x    frame= 7520 fps=182 q=-0.0 size=N/A time=00:05:13.64 bitrate=N/A speed= 7.6x    frame= 7629 fps=182 q=-0.0 size=N/A time=00:05:18.19 bitrate=N/A speed=7.61x    frame= 7718 fps=182 q=-0.0 size=N/A time=00:05:21.90 bitrate=N/A speed= 7.6x    frame= 7822 fps=183 q=-0.0 size=N/A time=00:05:26.24 bitrate=N/A speed=7.62x    frame= 7916 fps=183 q=-0.0 size=N/A time=00:05:30.16 bitrate=N/A speed=7.62x    frame= 8011 fps=183 q=-0.0 size=N/A time=00:05:34.12 bitrate=N/A speed=7.62x    frame= 8107 fps=183 q=-0.0 size=N/A time=00:05:38.12 bitrate=N/A speed=7.62x    frame= 8202 fps=183 q=-0.0 size=N/A time=00:05:42.09 bitrate=N/A speed=7.62x    frame= 8302 fps=183 q=-0.0 size=N/A time=00:05:46.26 bitrate=N/A speed=7.62x    frame= 8388 fps=183 q=-0.0 size=N/A time=00:05:49.84 bitrate=N/A speed=7.61x    frame= 8492 fps=183 q=-0.0 size=N/A time=00:05:54.18 bitrate=N/A speed=7.62x    frame= 8586 fps=183 q=-0.0 size=N/A time=00:05:58.10 bitrate=N/A speed=7.62x    frame= 8684 fps=183 q=-0.0 size=N/A time=00:06:02.19 bitrate=N/A speed=7.63x    frame= 8772 fps=183 q=-0.0 size=N/A time=00:06:05.86 bitrate=N/A speed=7.62x    frame= 8876 fps=183 q=-0.0 size=N/A time=00:06:10.20 bitrate=N/A speed=7.63x    frame= 8970 fps=183 q=-0.0 size=N/A time=00:06:14.12 bitrate=N/A speed=7.63x    frame= 9065 fps=183 q=-0.0 size=N/A time=00:06:18.08 bitrate=N/A speed=7.63x    frame= 9156 fps=183 q=-0.0 size=N/A time=00:06:21.88 bitrate=N/A speed=7.63x    frame= 9250 fps=183 q=-0.0 size=N/A time=00:06:25.80 bitrate=N/A speed=7.63x    frame= 9344 fps=183 q=-0.0 size=N/A time=00:06:29.72 bitrate=N/A speed=7.63x    frame= 9438 fps=183 q=-0.0 size=N/A time=00:06:33.64 bitrate=N/A speed=7.63x    frame= 9531 fps=183 q=-0.0 size=N/A time=00:06:37.52 bitrate=N/A speed=7.63x    frame= 9615 fps=183 q=-0.0 size=N/A time=00:06:41.02 bitrate=N/A speed=7.62x    frame= 9721 fps=183 q=-0.0 size=N/A time=00:06:45.44 bitrate=N/A speed=7.62x    frame= 9815 fps=183 q=-0.0 size=N/A time=00:06:49.36 bitrate=N/A speed=7.62x    frame= 9909 fps=183 q=-0.0 size=N/A time=00:06:53.28 bitrate=N/A speed=7.62x    frame=10003 fps=183 q=-0.0 size=N/A time=00:06:57.20 bitrate=N/A speed=7.62x    frame=10096 fps=183 q=-0.0 size=N/A time=00:07:01.08 bitrate=N/A speed=7.62x    frame=10195 fps=183 q=-0.0 size=N/A time=00:07:05.21 bitrate=N/A speed=7.63x    frame=10281 fps=183 q=-0.0 size=N/A time=00:07:08.80 bitrate=N/A speed=7.62x    frame=10383 fps=183 q=-0.0 size=N/A time=00:07:13.05 bitrate=N/A speed=7.63x    frame=10478 fps=183 q=-0.0 size=N/A time=00:07:17.01 bitrate=N/A speed=7.63x    frame=10569 fps=183 q=-0.0 size=N/A time=00:07:20.81 bitrate=N/A speed=7.62x    frame=10658 fps=183 q=-0.0 size=N/A time=00:07:24.52 bitrate=N/A speed=7.62x    frame=10760 fps=183 q=-0.0 size=N/A time=00:07:28.78 bitrate=N/A speed=7.63x    frame=10855 fps=183 q=-0.0 size=N/A time=00:07:32.74 bitrate=N/A speed=7.63x    frame=10946 fps=183 q=-0.0 size=N/A time=00:07:36.53 bitrate=N/A speed=7.62x    frame=11048 fps=183 q=-0.0 size=N/A time=00:07:40.79 bitrate=N/A speed=7.63x    frame=11141 fps=183 q=-0.0 size=N/A time=00:07:44.67 bitrate=N/A speed=7.63x    frame=11233 fps=183 q=-0.0 size=N/A time=00:07:48.50 bitrate=N/A speed=7.63x    frame=11323 fps=183 q=-0.0 size=N/A time=00:07:52.26 bitrate=N/A speed=7.62x    frame=11427 fps=183 q=-0.0 size=N/A time=00:07:56.60 bitrate=N/A speed=7.63x    frame=11523 fps=183 q=-0.0 size=N/A time=00:08:00.60 bitrate=N/A speed=7.63x    frame=11618 fps=183 q=-0.0 size=N/A time=00:08:04.56 bitrate=N/A speed=7.63x    frame=11713 fps=183 q=-0.0 size=N/A time=00:08:08.52 bitrate=N/A speed=7.63x    frame=11810 fps=183 q=-0.0 size=N/A time=00:08:12.57 bitrate=N/A speed=7.63x    frame=11902 fps=183 q=-0.0 size=N/A time=00:08:16.41 bitrate=N/A speed=7.63x    frame=12001 fps=183 q=-0.0 size=N/A time=00:08:20.54 bitrate=N/A speed=7.64x    frame=12096 fps=183 q=-0.0 size=N/A time=00:08:24.50 bitrate=N/A speed=7.63x    frame=12196 fps=183 q=-0.0 size=N/A time=00:08:28.67 bitrate=N/A speed=7.64x    frame=12288 fps=183 q=-0.0 size=N/A time=00:08:32.51 bitrate=N/A speed=7.64x    frame=12391 fps=183 q=-0.0 size=N/A time=00:08:36.80 bitrate=N/A speed=7.64x    frame=12486 fps=183 q=-0.0 size=N/A time=00:08:40.77 bitrate=N/A speed=7.64x    frame=12578 fps=183 q=-0.0 size=N/A time=00:08:44.60 bitrate=N/A speed=7.64x    frame=12682 fps=183 q=-0.0 size=N/A time=00:08:48.94 bitrate=N/A speed=7.65x    frame=12781 fps=183 q=-0.0 size=N/A time=00:08:53.07 bitrate=N/A speed=7.65x    frame=12877 fps=183 q=-0.0 size=N/A time=00:08:57.07 bitrate=N/A speed=7.65x    frame=12975 fps=183 q=-0.0 size=N/A time=00:09:01.16 bitrate=N/A speed=7.65x    frame=13073 fps=184 q=-0.0 size=N/A time=00:09:05.25 bitrate=N/A speed=7.66x    frame=13170 fps=184 q=-0.0 size=N/A time=00:09:09.29 bitrate=N/A speed=7.66x    frame=13267 fps=184 q=-0.0 size=N/A time=00:09:13.34 bitrate=N/A speed=7.66x    frame=13364 fps=184 q=-0.0 size=N/A time=00:09:17.39 bitrate=N/A speed=7.66x    frame=13455 fps=184 q=-0.0 size=N/A time=00:09:21.18 bitrate=N/A speed=7.66x    frame=13555 fps=184 q=-0.0 size=N/A time=00:09:25.35 bitrate=N/A speed=7.66x    frame=13654 fps=184 q=-0.0 size=N/A time=00:09:29.48 bitrate=N/A speed=7.66x    frame=13750 fps=184 q=-0.0 size=N/A time=00:09:33.48 bitrate=N/A speed=7.66x    frame=13848 fps=184 q=-0.0 size=N/A time=00:09:37.57 bitrate=N/A speed=7.66x    frame=13945 fps=184 q=-0.0 size=N/A time=00:09:41.62 bitrate=N/A speed=7.67x    frame=14046 fps=184 q=-0.0 size=N/A time=00:09:45.83 bitrate=N/A speed=7.67x    frame=14135 fps=184 q=-0.0 size=N/A time=00:09:49.54 bitrate=N/A speed=7.67x    frame=14244 fps=184 q=-0.0 size=N/A time=00:09:54.09 bitrate=N/A speed=7.67x    frame=14331 fps=184 q=-0.0 size=N/A time=00:09:57.72 bitrate=N/A speed=7.67x    frame=14436 fps=184 q=-0.0 size=N/A time=00:10:02.10 bitrate=N/A speed=7.67x    frame=14532 fps=184 q=-0.0 size=N/A time=00:10:06.10 bitrate=N/A speed=7.68x    frame=14633 fps=184 q=-0.0 size=N/A time=00:10:10.31 bitrate=N/A speed=7.68x    frame=14727 fps=184 q=-0.0 size=N/A time=00:10:14.23 bitrate=N/A speed=7.68x    frame=14830 fps=184 q=-0.0 size=N/A time=00:10:18.53 bitrate=N/A speed=7.68x    frame=14931 fps=184 q=-0.0 size=N/A time=00:10:22.74 bitrate=N/A speed=7.69x    frame=15023 fps=184 q=-0.0 size=N/A time=00:10:26.58 bitrate=N/A speed=7.68x    frame=15126 fps=184 q=-0.0 size=N/A time=00:10:30.88 bitrate=N/A speed=7.69x    frame=15222 fps=184 q=-0.0 size=N/A time=00:10:34.88 bitrate=N/A speed=7.69x    frame=15320 fps=184 q=-0.0 size=N/A time=00:10:38.97 bitrate=N/A speed=7.69x    frame=15419 fps=184 q=-0.0 size=N/A time=00:10:43.10 bitrate=N/A speed=7.69x    frame=15513 fps=184 q=-0.0 size=N/A time=00:10:47.02 bitrate=N/A speed=7.69x    frame=15610 fps=184 q=-0.0 size=N/A time=00:10:51.06 bitrate=N/A speed=7.69x    frame=15712 fps=184 q=-0.0 size=N/A time=00:10:55.32 bitrate=N/A speed=7.69x    frame=15811 fps=185 q=-0.0 size=N/A time=00:10:59.45 bitrate=N/A speed= 7.7x    frame=15910 fps=185 q=-0.0 size=N/A time=00:11:03.57 bitrate=N/A speed= 7.7x    frame=16002 fps=185 q=-0.0 size=N/A time=00:11:07.41 bitrate=N/A speed= 7.7x    frame=16112 fps=185 q=-0.0 size=N/A time=00:11:12.00 bitrate=N/A speed= 7.7x    frame=16208 fps=185 q=-0.0 size=N/A time=00:11:16.00 bitrate=N/A speed= 7.7x    frame=16296 fps=185 q=-0.0 size=N/A time=00:11:19.67 bitrate=N/A speed= 7.7x    frame=16398 fps=185 q=-0.0 size=N/A time=00:11:23.93 bitrate=N/A speed= 7.7x    frame=16492 fps=185 q=-0.0 size=N/A time=00:11:27.85 bitrate=N/A speed= 7.7x    frame=16584 fps=185 q=-0.0 size=N/A time=00:11:31.69 bitrate=N/A speed= 7.7x    frame=16670 fps=185 q=-0.0 size=N/A time=00:11:35.27 bitrate=N/A speed= 7.7x    frame=16775 fps=185 q=-0.0 size=N/A time=00:11:39.65 bitrate=N/A speed= 7.7x    frame=16873 fps=185 q=-0.0 size=N/A time=00:11:43.74 bitrate=N/A speed= 7.7x    frame=16963 fps=185 q=-0.0 size=N/A time=00:11:47.49 bitrate=N/A speed= 7.7x    frame=17058 fps=185 q=-0.0 size=N/A time=00:11:51.46 bitrate=N/A speed= 7.7x    frame=17158 fps=185 q=-0.0 size=N/A time=00:11:55.63 bitrate=N/A speed= 7.7x    frame=17252 fps=185 q=-0.0 size=N/A time=00:11:59.55 bitrate=N/A speed= 7.7x    frame=17345 fps=185 q=-0.0 size=N/A time=00:12:03.43 bitrate=N/A speed= 7.7x    frame=17442 fps=185 q=-0.0 size=N/A time=00:12:07.47 bitrate=N/A speed= 7.7x    frame=17545 fps=185 q=-0.0 size=N/A time=00:12:11.77 bitrate=N/A speed= 7.7x    frame=17637 fps=185 q=-0.0 size=N/A time=00:12:15.60 bitrate=N/A speed= 7.7x    frame=17738 fps=185 q=-0.0 size=N/A time=00:12:19.82 bitrate=N/A speed= 7.7x    frame=17827 fps=185 q=-0.0 size=N/A time=00:12:23.53 bitrate=N/A speed= 7.7x    frame=17925 fps=185 q=-0.0 size=N/A time=00:12:27.62 bitrate=N/A speed= 7.7x    frame=18029 fps=185 q=-0.0 size=N/A time=00:12:31.95 bitrate=N/A speed= 7.7x    frame=18125 fps=185 q=-0.0 size=N/A time=00:12:35.96 bitrate=N/A speed=7.71x    frame=18218 fps=185 q=-0.0 size=N/A time=00:12:39.84 bitrate=N/A speed= 7.7x    frame=18318 fps=185 q=-0.0 size=N/A time=00:12:44.01 bitrate=N/A speed=7.71x    frame=18411 fps=185 q=-0.0 size=N/A time=00:12:47.89 bitrate=N/A speed=7.71x    frame=18510 fps=185 q=-0.0 size=N/A time=00:12:52.02 bitrate=N/A speed=7.71x    frame=18602 fps=185 q=-0.0 size=N/A time=00:12:55.85 bitrate=N/A speed=7.71x    frame=18701 fps=185 q=-0.0 size=N/A time=00:12:59.98 bitrate=N/A speed=7.71x    frame=18794 fps=185 q=-0.0 size=N/A time=00:13:03.86 bitrate=N/A speed=7.71x    frame=18891 fps=185 q=-0.0 size=N/A time=00:13:07.91 bitrate=N/A speed=7.71x    frame=18979 fps=185 q=-0.0 size=N/A time=00:13:11.58 bitrate=N/A speed= 7.7x    frame=19066 fps=185 q=-0.0 size=N/A time=00:13:15.21 bitrate=N/A speed= 7.7x    frame=19161 fps=185 q=-0.0 size=N/A time=00:13:19.17 bitrate=N/A speed= 7.7x    frame=19270 fps=185 q=-0.0 size=N/A time=00:13:23.71 bitrate=N/A speed=7.71x    frame=19365 fps=185 q=-0.0 size=N/A time=00:13:27.68 bitrate=N/A speed=7.71x    frame=19458 fps=185 q=-0.0 size=N/A time=00:13:31.56 bitrate=N/A speed=7.71x    frame=19556 fps=185 q=-0.0 size=N/A time=00:13:35.64 bitrate=N/A speed=7.71x    frame=19652 fps=185 q=-0.0 size=N/A time=00:13:39.65 bitrate=N/A speed=7.71x    frame=19743 fps=185 q=-0.0 size=N/A time=00:13:43.44 bitrate=N/A speed=7.71x    frame=19844 fps=185 q=-0.0 size=N/A time=00:13:47.66 bitrate=N/A speed=7.71x    frame=19931 fps=185 q=-0.0 size=N/A time=00:13:51.28 bitrate=N/A speed= 7.7x    frame=20033 fps=185 q=-0.0 size=N/A time=00:13:55.54 bitrate=N/A speed=7.71x    frame=20120 fps=185 q=-0.0 size=N/A time=00:13:59.17 bitrate=N/A speed= 7.7x    frame=20221 fps=185 q=-0.0 size=N/A time=00:14:03.38 bitrate=N/A speed=7.71x    frame=20304 fps=185 q=-0.0 size=N/A time=00:14:06.84 bitrate=N/A speed= 7.7x    frame=20413 fps=185 q=-0.0 size=N/A time=00:14:11.39 bitrate=N/A speed=7.71x    frame=20511 fps=185 q=-0.0 size=N/A time=00:14:15.47 bitrate=N/A speed=7.71x    frame=20600 fps=185 q=-0.0 size=N/A time=00:14:19.19 bitrate=N/A speed=7.71x    frame=20704 fps=185 q=-0.0 size=N/A time=00:14:23.52 bitrate=N/A speed=7.71x    frame=20799 fps=185 q=-0.0 size=N/A time=00:14:27.49 bitrate=N/A speed=7.71x    frame=20897 fps=185 q=-0.0 size=N/A time=00:14:31.57 bitrate=N/A speed=7.71x    frame=20988 fps=185 q=-0.0 size=N/A time=00:14:35.37 bitrate=N/A speed=7.71x    frame=21081 fps=185 q=-0.0 size=N/A time=00:14:39.25 bitrate=N/A speed=7.71x    frame=21179 fps=185 q=-0.0 size=N/A time=00:14:43.34 bitrate=N/A speed=7.71x    frame=21273 fps=185 q=-0.0 size=N/A time=00:14:47.26 bitrate=N/A speed=7.71x    frame=21373 fps=185 q=-0.0 size=N/A time=00:14:51.43 bitrate=N/A speed=7.71x    frame=21459 fps=185 q=-0.0 size=N/A time=00:14:55.01 bitrate=N/A speed=7.71x    frame=21560 fps=185 q=-0.0 size=N/A time=00:14:59.23 bitrate=N/A speed=7.71x    frame=21662 fps=185 q=-0.0 size=N/A time=00:15:03.48 bitrate=N/A speed=7.71x    frame=21759 fps=185 q=-0.0 size=N/A time=00:15:07.53 bitrate=N/A speed=7.71x    frame=21852 fps=185 q=-0.0 size=N/A time=00:15:11.41 bitrate=N/A speed=7.71x    frame=21947 fps=185 q=-0.0 size=N/A time=00:15:15.37 bitrate=N/A speed=7.71x    frame=22032 fps=185 q=-0.0 size=N/A time=00:15:18.91 bitrate=N/A speed=7.71x    frame=22129 fps=185 q=-0.0 size=N/A time=00:15:22.96 bitrate=N/A speed=7.71x    frame=22232 fps=185 q=-0.0 size=N/A time=00:15:27.25 bitrate=N/A speed=7.71x    frame=22328 fps=185 q=-0.0 size=N/A time=00:15:31.26 bitrate=N/A speed=7.71x    frame=22422 fps=185 q=-0.0 size=N/A time=00:15:35.18 bitrate=N/A speed=7.71x    frame=22519 fps=185 q=-0.0 size=N/A time=00:15:39.22 bitrate=N/A speed=7.71x    frame=22605 fps=185 q=-0.0 size=N/A time=00:15:42.81 bitrate=N/A speed=7.71x    frame=22701 fps=185 q=-0.0 size=N/A time=00:15:46.82 bitrate=N/A speed=7.71x    frame=22800 fps=185 q=-0.0 size=N/A time=00:15:50.95 bitrate=N/A speed=7.71x    frame=22896 fps=185 q=-0.0 size=N/A time=00:15:54.95 bitrate=N/A speed=7.71x    frame=22992 fps=185 q=-0.0 size=N/A time=00:15:58.95 bitrate=N/A speed=7.71x    frame=23081 fps=185 q=-0.0 size=N/A time=00:16:02.67 bitrate=N/A speed=7.71x    frame=23175 fps=185 q=-0.0 size=N/A time=00:16:06.59 bitrate=N/A speed=7.71x    frame=23281 fps=185 q=-0.0 size=N/A time=00:16:11.01 bitrate=N/A speed=7.71x    frame=23375 fps=185 q=-0.0 size=N/A time=00:16:14.93 bitrate=N/A speed=7.71x    frame=23470 fps=185 q=-0.0 size=N/A time=00:16:18.89 bitrate=N/A speed=7.71x    frame=23575 fps=185 q=-0.0 size=N/A time=00:16:23.27 bitrate=N/A speed=7.71x    frame=23672 fps=185 q=-0.0 size=N/A time=00:16:27.31 bitrate=N/A speed=7.71x    frame=23771 fps=185 q=-0.0 size=N/A time=00:16:31.44 bitrate=N/A speed=7.71x    frame=23865 fps=185 q=-0.0 size=N/A time=00:16:35.36 bitrate=N/A speed=7.71x    frame=23947 fps=185 q=-0.0 size=N/A time=00:16:38.78 bitrate=N/A speed=7.71x    frame=24054 fps=185 q=-0.0 size=N/A time=00:16:43.29 bitrate=N/A speed=7.71x    frame=24151 fps=185 q=-0.0 size=N/A time=00:16:47.29 bitrate=N/A speed=7.71x    frame=24247 fps=185 q=-0.0 size=N/A time=00:16:51.30 bitrate=N/A speed=7.71x    frame=24342 fps=185 q=-0.0 size=N/A time=00:16:55.26 bitrate=N/A speed=7.71x    frame=24434 fps=185 q=-0.0 size=N/A time=00:16:59.10 bitrate=N/A speed=7.71x    frame=24523 fps=185 q=-0.0 size=N/A time=00:17:02.81 bitrate=N/A speed=7.71x    frame=24616 fps=185 q=-0.0 size=N/A time=00:17:06.69 bitrate=N/A speed=7.71x    frame=24709 fps=185 q=-0.0 size=N/A time=00:17:10.57 bitrate=N/A speed=7.71x    frame=24807 fps=185 q=-0.0 size=N/A time=00:17:14.65 bitrate=N/A speed=7.71x    frame=24898 fps=185 q=-0.0 size=N/A time=00:17:18.45 bitrate=N/A speed=7.71x    frame=24987 fps=185 q=-0.0 size=N/A time=00:17:22.16 bitrate=N/A speed= 7.7x    frame=25085 fps=185 q=-0.0 size=N/A time=00:17:26.25 bitrate=N/A speed= 7.7x    frame=25179 fps=185 q=-0.0 size=N/A time=00:17:30.17 bitrate=N/A speed= 7.7x    frame=25272 fps=185 q=-0.0 size=N/A time=00:17:34.05 bitrate=N/A speed= 7.7x    frame=25367 fps=185 q=-0.0 size=N/A time=00:17:38.01 bitrate=N/A speed= 7.7x    frame=25463 fps=185 q=-0.0 size=N/A time=00:17:42.01 bitrate=N/A speed= 7.7x    frame=25559 fps=185 q=-0.0 size=N/A time=00:17:46.02 bitrate=N/A speed= 7.7x    frame=25656 fps=185 q=-0.0 size=N/A time=00:17:50.06 bitrate=N/A speed= 7.7x    frame=25749 fps=185 q=-0.0 size=N/A time=00:17:53.94 bitrate=N/A speed= 7.7x    frame=25848 fps=185 q=-0.0 size=N/A time=00:17:58.07 bitrate=N/A speed= 7.7x    frame=25941 fps=185 q=-0.0 size=N/A time=00:18:01.95 bitrate=N/A speed= 7.7x    frame=26023 fps=185 q=-0.0 size=N/A time=00:18:05.37 bitrate=N/A speed= 7.7x    frame=26128 fps=185 q=-0.0 size=N/A time=00:18:09.75 bitrate=N/A speed= 7.7x    frame=26229 fps=185 q=-0.0 size=N/A time=00:18:13.96 bitrate=N/A speed= 7.7x    frame=26323 fps=185 q=-0.0 size=N/A time=00:18:17.88 bitrate=N/A speed= 7.7x    frame=26418 fps=185 q=-0.0 size=N/A time=00:18:21.85 bitrate=N/A speed= 7.7x    frame=26515 fps=185 q=-0.0 size=N/A time=00:18:25.89 bitrate=N/A speed= 7.7x    frame=26596 fps=185 q=-0.0 size=N/A time=00:18:29.27 bitrate=N/A speed= 7.7x    frame=26702 fps=185 q=-0.0 size=N/A time=00:18:33.69 bitrate=N/A speed= 7.7x    frame=26802 fps=185 q=-0.0 size=N/A time=00:18:37.86 bitrate=N/A speed=7.71x    frame=26900 fps=185 q=-0.0 size=N/A time=00:18:41.95 bitrate=N/A speed=7.71x    frame=26980 fps=185 q=-0.0 size=N/A time=00:18:45.29 bitrate=N/A speed= 7.7x    frame=27091 fps=185 q=-0.0 size=N/A time=00:18:49.92 bitrate=N/A speed=7.71x    frame=27184 fps=185 q=-0.0 size=N/A time=00:18:53.79 bitrate=N/A speed=7.71x    frame=27280 fps=185 q=-0.0 size=N/A time=00:18:57.80 bitrate=N/A speed=7.71x    frame=27375 fps=185 q=-0.0 size=N/A time=00:19:01.76 bitrate=N/A speed=7.71x    frame=27472 fps=185 q=-0.0 size=N/A time=00:19:05.81 bitrate=N/A speed=7.71x    frame=27563 fps=185 q=-0.0 size=N/A time=00:19:09.60 bitrate=N/A speed=7.71x    frame=27668 fps=185 q=-0.0 size=N/A time=00:19:13.98 bitrate=N/A speed=7.71x    frame=27751 fps=185 q=-0.0 size=N/A time=00:19:17.44 bitrate=N/A speed= 7.7x    frame=27859 fps=185 q=-0.0 size=N/A time=00:19:21.95 bitrate=N/A speed=7.71x    frame=27945 fps=185 q=-0.0 size=N/A time=00:19:25.53 bitrate=N/A speed=7.71x    frame=28050 fps=185 q=-0.0 size=N/A time=00:19:29.91 bitrate=N/A speed=7.71x    frame=28143 fps=185 q=-0.0 size=N/A time=00:19:33.79 bitrate=N/A speed=7.71x    frame=28241 fps=185 q=-0.0 size=N/A time=00:19:37.88 bitrate=N/A speed=7.71x    frame=28335 fps=185 q=-0.0 size=N/A time=00:19:41.80 bitrate=N/A speed=7.71x    frame=28432 fps=185 q=-0.0 size=N/A time=00:19:45.85 bitrate=N/A speed=7.71x    frame=28528 fps=185 q=-0.0 size=N/A time=00:19:49.85 bitrate=N/A speed=7.71x    frame=28615 fps=185 q=-0.0 size=N/A time=00:19:53.48 bitrate=N/A speed=7.71x    frame=28719 fps=185 q=-0.0 size=N/A time=00:19:57.82 bitrate=N/A speed=7.71x    frame=28808 fps=185 q=-0.0 size=N/A time=00:20:01.53 bitrate=N/A speed=7.71x    frame=28909 fps=185 q=-0.0 size=N/A time=00:20:05.74 bitrate=N/A speed=7.71x    frame=29005 fps=185 q=-0.0 size=N/A time=00:20:09.75 bitrate=N/A speed=7.71x    frame=29103 fps=185 q=-0.0 size=N/A time=00:20:13.83 bitrate=N/A speed=7.71x    frame=29200 fps=185 q=-0.0 size=N/A time=00:20:17.88 bitrate=N/A speed=7.71x    frame=29298 fps=185 q=-0.0 size=N/A time=00:20:21.97 bitrate=N/A speed=7.71x    frame=29387 fps=185 q=-0.0 size=N/A time=00:20:25.68 bitrate=N/A speed=7.71x    frame=29475 fps=185 q=-0.0 size=N/A time=00:20:29.35 bitrate=N/A speed=7.71x    frame=29579 fps=185 q=-0.0 size=N/A time=00:20:33.69 bitrate=N/A speed=7.71x    frame=29680 fps=185 q=-0.0 size=N/A time=00:20:37.90 bitrate=N/A speed=7.71x    frame=29769 fps=185 q=-0.0 size=N/A time=00:20:41.61 bitrate=N/A speed=7.71x    frame=29869 fps=185 q=-0.0 size=N/A time=00:20:45.78 bitrate=N/A speed=7.71x    frame=29964 fps=185 q=-0.0 size=N/A time=00:20:49.74 bitrate=N/A speed=7.71x    frame=30060 fps=185 q=-0.0 size=N/A time=00:20:53.75 bitrate=N/A speed=7.71x    frame=30151 fps=185 q=-0.0 size=N/A time=00:20:57.54 bitrate=N/A speed=7.71x    frame=30244 fps=185 q=-0.0 size=N/A time=00:21:01.42 bitrate=N/A speed=7.71x    frame=30332 fps=185 q=-0.0 size=N/A time=00:21:05.09 bitrate=N/A speed=7.71x    frame=30423 fps=185 q=-0.0 size=N/A time=00:21:08.89 bitrate=N/A speed=7.71x    frame=30518 fps=185 q=-0.0 size=N/A time=00:21:12.85 bitrate=N/A speed=7.71x    frame=30605 fps=185 q=-0.0 size=N/A time=00:21:16.48 bitrate=N/A speed= 7.7x    frame=30702 fps=185 q=-0.0 size=N/A time=00:21:20.52 bitrate=N/A speed= 7.7x    frame=30793 fps=185 q=-0.0 size=N/A time=00:21:24.32 bitrate=N/A speed= 7.7x    frame=30888 fps=185 q=-0.0 size=N/A time=00:21:28.28 bitrate=N/A speed= 7.7x    frame=30978 fps=185 q=-0.0 size=N/A time=00:21:32.04 bitrate=N/A speed= 7.7x    frame=31070 fps=185 q=-0.0 size=N/A time=00:21:35.87 bitrate=N/A speed= 7.7x    frame=31164 fps=185 q=-0.0 size=N/A time=00:21:39.79 bitrate=N/A speed= 7.7x    frame=31250 fps=185 q=-0.0 size=N/A time=00:21:43.38 bitrate=N/A speed= 7.7x    frame=31348 fps=185 q=-0.0 size=N/A time=00:21:47.47 bitrate=N/A speed= 7.7x    frame=31442 fps=185 q=-0.0 size=N/A time=00:21:51.39 bitrate=N/A speed= 7.7x    frame=31536 fps=185 q=-0.0 size=N/A time=00:21:55.31 bitrate=N/A speed= 7.7x    frame=31616 fps=184 q=-0.0 size=N/A time=00:21:58.65 bitrate=N/A speed=7.69x    frame=31717 fps=185 q=-0.0 size=N/A time=00:22:02.86 bitrate=N/A speed= 7.7x    frame=31808 fps=184 q=-0.0 size=N/A time=00:22:06.65 bitrate=N/A speed=7.69x    frame=31901 fps=184 q=-0.0 size=N/A time=00:22:10.53 bitrate=N/A speed=7.69x    frame=31991 fps=184 q=-0.0 size=N/A time=00:22:14.29 bitrate=N/A speed=7.69x    frame=32084 fps=184 q=-0.0 size=N/A time=00:22:18.17 bitrate=N/A speed=7.69x    frame=32175 fps=184 q=-0.0 size=N/A time=00:22:21.96 bitrate=N/A speed=7.69x    frame=32270 fps=184 q=-0.0 size=N/A time=00:22:25.92 bitrate=N/A speed=7.69x    frame=32360 fps=184 q=-0.0 size=N/A time=00:22:29.68 bitrate=N/A speed=7.69x    frame=32450 fps=184 q=-0.0 size=N/A time=00:22:33.43 bitrate=N/A speed=7.69x    frame=32543 fps=184 q=-0.0 size=N/A time=00:22:37.31 bitrate=N/A speed=7.69x    frame=32644 fps=184 q=-0.0 size=N/A time=00:22:41.52 bitrate=N/A speed=7.69x    frame=32745 fps=184 q=-0.0 size=N/A time=00:22:45.73 bitrate=N/A speed=7.69x    frame=32836 fps=184 q=-0.0 size=N/A time=00:22:49.53 bitrate=N/A speed=7.69x    frame=32931 fps=184 q=-0.0 size=N/A time=00:22:53.49 bitrate=N/A speed=7.69x    frame=33025 fps=184 q=-0.0 size=N/A time=00:22:57.41 bitrate=N/A speed=7.69x    [Parsed_psnr_10 @ 0000028bcbf55000] PSNR y:45.644477 u:50.056087 v:49.489797 average:46.636574 min:39.690679 max:52.976550
[out#0/null @ 0000028bbfe212c0] video:14218KiB audio:258980KiB subtitle:0KiB other streams:0KiB global headers:0KiB muxing overhead: unknown
frame=33088 fps=184 q=-0.0 Lsize=N/A time=00:23:00.04 bitrate=N/A speed=7.69x    
